<svg width="36" height="24" viewBox="0 0 36 24" fill="none" xmlns="http://www.w3.org/2000/svg">
<g clip-path="url(#clip0_2174_1203)">
<path d="M1.84615 0H34.1538C35.1735 0 36 0.826569 36 1.84615V21.2308C36 22.2504 35.1735 23.0769 34.1538 23.0769H1.84615C0.826569 23.0769 0 22.2504 0 21.2308V1.84615C0 0.826569 0.826569 0 1.84615 0Z" fill="#2557D6"/>
<path d="M0.0117054 10.8779H1.73975L2.12938 9.97743H3.00169L3.39031 10.8779H6.79037V10.1895L7.09387 10.8809H8.85894L9.16244 10.1793V10.8779H17.6123L17.6084 9.39982H17.7718C17.8863 9.40365 17.9197 9.41376 17.9197 9.59486V10.8779H22.29V10.5339C22.6426 10.7148 23.1908 10.8779 23.9122 10.8779H25.7508L26.1442 9.97748H27.0166L27.4013 10.8779H30.9443V10.0226L31.4809 10.8779H34.3201V5.22363H31.5102V5.89139L31.1169 5.22363H28.2336V5.89139L27.8723 5.22363H23.9779C23.326 5.22363 22.753 5.31082 22.2901 5.55377V5.22363H19.6026V5.55377C19.308 5.30334 18.9066 5.22363 18.4603 5.22363H8.64151L7.98271 6.68399L7.30614 5.22363H4.2136V5.89139L3.87381 5.22363H1.23635L0.0114746 7.91191V10.8778H0.0116131L0.0117054 10.8779ZM10.9197 10.0624H9.88291L9.87908 6.88725L8.41254 10.0623H7.52454L6.05417 6.88443V10.0623H3.99709L3.60847 9.15806H1.50261L1.11007 10.0623H0.0115669L1.82269 6.00829H3.32541L5.04552 9.84663V6.00829H6.69626L8.01986 8.75846L9.23574 6.00829H10.9197L10.9197 10.0624ZM3.26278 8.31668L2.57057 6.70051L1.88218 8.31668H3.26278ZM15.0459 10.0623H11.6673V6.00825H15.0459V6.85245H12.6787V7.5832H14.9891V8.4142H12.6786V9.22383H15.0458L15.0459 10.0623ZM19.8071 7.10011C19.8071 7.74645 19.3569 8.08042 19.0945 8.18066C19.3158 8.26134 19.5049 8.40396 19.5948 8.52206C19.7376 8.72371 19.7623 8.9038 19.7623 9.26588V10.0623H18.7421L18.7383 9.55102C18.7383 9.30709 18.7626 8.95628 18.5787 8.76123C18.4309 8.61862 18.2056 8.58769 17.8414 8.58769H16.7558V10.0623H15.7444V6.00825H18.0706C18.5874 6.00825 18.9683 6.02131 19.2952 6.20242C19.6152 6.38353 19.8071 6.64789 19.8071 7.10011ZM18.5287 7.70205C18.3896 7.78291 18.2253 7.78559 18.0283 7.78559H16.7997V6.88512H18.045C18.2212 6.88512 18.4052 6.89269 18.5247 6.95823C18.6559 7.01731 18.7371 7.14299 18.7371 7.31662C18.7371 7.49385 18.6598 7.63642 18.5287 7.70205ZM21.4292 10.0623H20.3973V6.00825H21.4292V10.0623ZM33.4089 10.0623H31.9756L30.0586 7.01948V10.0623H27.9989L27.6053 9.15802H25.5044L25.1226 10.0623H23.9389C23.4474 10.0623 22.8248 9.95809 22.4724 9.61388C22.117 9.26966 21.9321 8.80342 21.9321 8.0662C21.9321 7.46496 22.0426 6.91531 22.4772 6.48096C22.8042 6.15742 23.3163 6.00825 24.0132 6.00825H24.9924V6.87691H24.0337C23.6646 6.87691 23.4562 6.92953 23.2555 7.11705C23.0831 7.28777 22.9648 7.61043 22.9648 8.03537C22.9648 8.46968 23.0548 8.78288 23.2428 8.98743C23.3985 9.14786 23.6815 9.19651 23.9476 9.19651H24.4019L25.8273 6.00839H27.3428L29.0552 9.84289V6.00843H30.5951L32.3729 8.83185V6.00843H33.4089V10.0623ZM27.2612 8.31673L26.5612 6.70056L25.8652 8.31673H27.2612ZM35.9861 16.5358C35.7405 16.88 35.2618 17.0545 34.6137 17.0545H32.6605V16.1849H34.6057C34.7987 16.1849 34.9337 16.1606 35.015 16.0846C35.0919 16.0165 35.1352 15.9205 35.1346 15.8201C35.1346 15.7019 35.0855 15.6082 35.011 15.5519C34.9377 15.49 34.8309 15.4619 34.6546 15.4619C33.7051 15.431 32.5203 15.49 32.5203 14.2068C32.5203 13.6187 32.91 12.9996 33.9713 12.9996H35.9859V12.1929H34.114C33.5493 12.1929 33.1389 12.3226 32.8483 12.524V12.1929H30.0797C29.6369 12.1929 29.1172 12.298 28.8715 12.524V12.1929H23.9275V12.524C23.5341 12.2521 22.8702 12.1929 22.5637 12.1929H19.3026V12.524C18.9913 12.2352 18.2992 12.1929 17.8771 12.1929H14.2274L13.3923 13.0589L12.61 12.1929H7.15789V17.8509H12.5071L13.3677 16.9711L14.1784 17.8509L17.4757 17.8537V16.5227H17.7998C18.2373 16.5292 18.7533 16.5122 19.2085 16.3237V17.8507H21.9283V16.376H22.0594C22.2269 16.376 22.2434 16.3826 22.2434 16.5428V17.8505H30.5054C31.0299 17.8505 31.5782 17.7219 31.8819 17.4884V17.8505H34.5025C35.0478 17.8505 35.5804 17.7772 35.9856 17.5898L35.9857 16.5356L35.9861 16.5358ZM19.6042 14.3594C19.6042 15.4858 18.7271 15.7184 17.8431 15.7184H16.5811V17.0785H14.6153L13.3699 15.7361L12.0757 17.0785H8.06943V13.0235H12.1372L13.3816 14.3527L14.6681 13.0235H17.8998C18.7024 13.0235 19.6042 13.2364 19.6042 14.3594ZM11.5633 16.2256H9.07664V15.4188H11.2971V14.5915H9.07664V13.8542H11.6123L12.7186 15.0359L11.5633 16.2256ZM15.5699 16.6899L14.0171 15.0381L15.5699 13.4389V16.6899ZM17.8664 14.8869H16.5594V13.8542H17.8781C18.2433 13.8542 18.4968 13.9968 18.4968 14.3514C18.4968 14.7021 18.255 14.8869 17.8664 14.8869ZM24.7138 13.0235H28.0894V13.8621H25.721V14.5993H28.0316V15.4267H25.721V16.2334L28.0894 16.2371V17.0785H24.7137L24.7138 13.0235ZM23.416 15.1941C23.6411 15.2737 23.8252 15.4163 23.9114 15.5344C24.0543 15.7325 24.0749 15.9172 24.079 16.2746V17.0785H23.0635V16.5712C23.0635 16.3272 23.088 15.966 22.9 15.7774C22.7523 15.6322 22.527 15.5975 22.1581 15.5975H21.0772V17.0786H20.0608V13.0235H22.396C22.9079 13.0235 23.2809 13.0452 23.6128 13.2149C23.932 13.3997 24.1328 13.6528 24.1328 14.1154C24.1328 14.7626 23.6822 15.0928 23.416 15.1941ZM22.8444 14.6814C22.7091 14.7584 22.5418 14.765 22.3451 14.765H21.1164V13.8543H22.3617C22.5418 13.8543 22.722 13.858 22.8444 13.9276C22.9755 13.9932 23.0538 14.1189 23.0538 14.2923C23.0538 14.4658 22.9754 14.6055 22.8444 14.6814ZM31.9745 14.9398C32.1716 15.1349 32.277 15.3815 32.277 15.7988C32.277 16.6711 31.7083 17.0783 30.6882 17.0783H28.7183V16.2088H30.6803C30.8722 16.2088 31.0082 16.1846 31.0934 16.1084C31.163 16.0457 31.2129 15.9546 31.2129 15.844C31.2129 15.7258 31.1589 15.6321 31.0894 15.5758C31.0121 15.514 30.9055 15.4858 30.7293 15.4858C29.7835 15.4549 28.599 15.514 28.599 14.2308C28.599 13.6426 28.9846 13.0235 30.045 13.0235H32.0726V13.8866H30.2173C30.0334 13.8866 29.9139 13.8933 29.8121 13.9599C29.7014 14.0255 29.6603 14.123 29.6603 14.2515C29.6603 14.4045 29.7543 14.5086 29.8816 14.5536C29.9883 14.5892 30.1029 14.5996 30.2751 14.5996L30.8196 14.6137C31.3686 14.6264 31.7455 14.7174 31.9745 14.9398ZM35.9878 13.8542H34.1446C33.9606 13.8542 33.8382 13.8609 33.7353 13.9275C33.6286 13.9931 33.5875 14.0906 33.5875 14.2192C33.5875 14.3722 33.6776 14.4762 33.8086 14.5213C33.9154 14.5569 34.03 14.5672 34.1984 14.5672L34.7466 14.5813C35.2996 14.5944 35.6688 14.6855 35.894 14.9077C35.9351 14.9386 35.9596 14.9733 35.9878 15.0081V13.8542H35.9878Z" fill="white"/>
</g>
<defs>
<clipPath id="clip0_2174_1203">
<rect width="36" height="23.0769" fill="white"/>
</clipPath>
</defs>
</svg>
