<svg width="15" height="18" viewBox="0 0 15 18" fill="none" xmlns="http://www.w3.org/2000/svg">
<path d="M3.33333 5.83333V4.16667C3.33333 3.0616 3.77232 2.00179 4.55372 1.22039C5.33512 0.438987 6.39493 0 7.5 0C8.60507 0 9.66488 0.438987 10.4463 1.22039C11.2277 2.00179 11.6667 3.0616 11.6667 4.16667V5.83333H14.1667C14.3877 5.83333 14.5996 5.92113 14.7559 6.07741C14.9122 6.23369 15 6.44565 15 6.66667V16.6667C15 16.8877 14.9122 17.0996 14.7559 17.2559C14.5996 17.4122 14.3877 17.5 14.1667 17.5H0.833333C0.61232 17.5 0.400358 17.4122 0.244078 17.2559C0.0877973 17.0996 0 16.8877 0 16.6667V6.66667C0 6.44565 0.0877973 6.23369 0.244078 6.07741C0.400358 5.92113 0.61232 5.83333 0.833333 5.83333H3.33333ZM3.33333 7.5H1.66667V15.8333H13.3333V7.5H11.6667V9.16667H10V7.5H5V9.16667H3.33333V7.5ZM5 5.83333H10V4.16667C10 3.50363 9.73661 2.86774 9.26777 2.3989C8.79893 1.93006 8.16304 1.66667 7.5 1.66667C6.83696 1.66667 6.20107 1.93006 5.73223 2.3989C5.26339 2.86774 5 3.50363 5 4.16667V5.83333Z" fill="#475569"/>
</svg>
