<svg width="36" height="24" viewBox="0 0 36 24" fill="none" xmlns="http://www.w3.org/2000/svg">
<g clip-path="url(#clip0_2137_1164)">
<path fill-rule="evenodd" clip-rule="evenodd" d="M2.53809 0C1.13663 0 0 1.13677 0 2.53865V20.5844C0 21.9866 1.13626 23.1231 2.53809 23.1231H33.4619C34.8634 23.1231 36 21.9863 36 20.5844V2.53865C36 1.13649 34.8637 0 33.4619 0L2.53809 0Z" fill="#4D4D4D"/>
<path fill-rule="evenodd" clip-rule="evenodd" d="M15.0993 7.47192C15.5072 7.47192 15.8492 7.55426 16.2655 7.753V8.80305C15.8712 8.44014 15.5291 8.28825 15.0768 8.28825C14.1877 8.28825 13.4884 8.98125 13.4884 9.85979C13.4884 10.7863 14.166 11.4381 15.1209 11.4381C15.5507 11.4381 15.8864 11.2941 16.2655 10.937V11.9876C15.8344 12.1786 15.485 12.2542 15.0768 12.2542C13.6332 12.2542 12.5115 11.2113 12.5115 9.86629C12.5115 8.53586 13.663 7.47192 15.0993 7.47192ZM10.6172 7.50086C11.1501 7.50086 11.6376 7.67255 12.0453 8.00828L11.5492 8.61972C11.3023 8.35914 11.0688 8.2492 10.7847 8.2492C10.3761 8.2492 10.0786 8.4682 10.0786 8.75639C10.0786 9.00349 10.2456 9.13429 10.8145 9.33248C11.8929 9.70374 12.2125 10.0329 12.2125 10.7598C12.2125 11.6457 11.5213 12.2623 10.5362 12.2623C9.81477 12.2623 9.29028 11.9948 8.85348 11.3913L9.46585 10.836C9.68416 11.2334 10.0484 11.4463 10.5006 11.4463C10.9235 11.4463 11.2366 11.1716 11.2366 10.8009C11.2366 10.6087 11.1418 10.4439 10.9524 10.3274C10.8571 10.2723 10.6682 10.19 10.297 10.0668C9.40668 9.76503 9.10119 9.44246 9.10119 8.81209C9.10119 8.06325 9.75722 7.50086 10.6172 7.50086ZM21.4505 7.58062H22.4861L23.7823 10.6541L25.0952 7.58062H26.1229L24.0231 12.2738H23.513L21.4505 7.58062ZM3.11139 7.58763H4.50293C6.0404 7.58763 7.11219 8.52834 7.11219 9.87875C7.11219 10.5521 6.78431 11.2032 6.22982 11.6352C5.7633 11.9999 5.2317 12.1635 4.49564 12.1635H3.11139V7.58763ZM7.54839 7.58763H8.49639V12.1635H7.54839V7.58763ZM26.5515 7.58763H29.24V8.36302H27.4989V9.37863H29.1759V10.1536H27.4989V11.3888H29.2401V12.1635H26.5515V7.58763H26.5515ZM29.868 7.58763H31.2736C32.367 7.58763 32.9936 8.08194 32.9936 8.93865C32.9936 9.63926 32.6006 10.099 31.8865 10.2358L33.4164 12.1635H32.2506L30.9385 10.3252H30.8149V12.1635H29.868V7.58763ZM30.8149 8.30837V9.69414H31.0919C31.6973 9.69414 32.0181 9.44666 32.0181 8.98669C32.0181 8.5414 31.6972 8.30837 31.1068 8.30837H30.8149ZM4.05874 8.36297V11.3888H4.31314C4.92574 11.3888 5.31265 11.2783 5.61053 11.0251C5.93836 10.7502 6.13557 10.3113 6.13557 9.87215C6.13557 9.43374 5.93836 9.00792 5.61053 8.73303C5.29737 8.46626 4.92574 8.36297 4.31314 8.36297H4.05874Z" fill="white"/>
<path fill-rule="evenodd" clip-rule="evenodd" d="M19.1599 7.44048C20.5879 7.44048 21.7455 8.52878 21.7455 9.8732V9.87472C21.7455 11.2192 20.5879 12.309 19.1599 12.309C17.7319 12.309 16.5743 11.2191 16.5743 9.87472V9.8732C16.5743 8.52874 17.7319 7.44043 19.1599 7.44043L19.1599 7.44048ZM35.9991 13.3089C34.7968 14.1549 25.7954 20.2016 10.2106 23.1222H33.4611C34.8626 23.1222 35.9992 21.9854 35.9992 20.5835V13.3088L35.9991 13.3089Z" fill="#F47216"/>
</g>
<defs>
<clipPath id="clip0_2137_1164">
<rect width="36" height="23.0769" fill="white"/>
</clipPath>
</defs>
</svg>
