<svg width="36" height="24" viewBox="0 0 36 24" fill="none" xmlns="http://www.w3.org/2000/svg">
<g clip-path="url(#clip0_2137_1173)">
<path d="M0 0H36V23.0769H0V0Z" fill="#16366F"/>
<path d="M20.7235 11.5385C20.7235 16.1144 17.0141 19.8231 12.4384 19.8231C7.86273 19.8231 4.15381 16.1142 4.15381 11.5385C4.15381 6.96315 7.86282 3.25391 12.4384 3.25391C17.014 3.25391 20.7235 6.96329 20.7235 11.5385Z" fill="#D9222A"/>
<path d="M23.5611 3.25366C21.4205 3.25366 19.4699 4.06578 17.9996 5.39825C17.7 5.67005 17.4204 5.96303 17.163 6.27498H18.8369C19.0661 6.55362 19.277 6.84674 19.4685 7.15251H16.5315C16.3548 7.43502 16.1955 7.728 16.0542 8.0298H19.9455C20.079 8.31526 20.1962 8.60811 20.2963 8.90691H15.7034C15.6069 9.19468 15.5266 9.48757 15.4626 9.78425H20.5368C20.6609 10.3607 20.7234 10.9488 20.7233 11.5385C20.7233 12.4585 20.5731 13.3437 20.2962 14.1702H15.7033C15.8032 14.4692 15.9203 14.7621 16.0539 15.0475H19.9454C19.804 15.3494 19.6445 15.6424 19.4679 15.9251H16.5313C16.7231 16.231 16.9343 16.5241 17.163 16.8018H18.8364C18.5793 17.1144 18.2996 17.4076 17.9996 17.6793C19.4701 19.0116 21.4205 19.8233 23.5612 19.8233C28.1368 19.8233 31.8462 16.1143 31.8462 11.5387C31.8462 6.96346 28.1369 3.25408 23.5612 3.25408" fill="#EE9F2D"/>
<path d="M30.7421 16.1566C30.7421 16.0089 30.8618 15.8889 31.0096 15.8889C31.1575 15.8889 31.2771 16.0089 31.2771 16.1566C31.2771 16.3043 31.1575 16.4243 31.0096 16.4243C30.8618 16.4242 30.7421 16.3044 30.7421 16.1566ZM31.0096 16.3601C31.122 16.36 31.213 16.2689 31.2131 16.1566C31.2131 16.0444 31.1221 15.9534 31.0098 15.9534H31.0096C30.8975 15.9532 30.8066 16.044 30.8064 16.1561V16.1567C30.8062 16.2689 30.8972 16.36 31.0094 16.3601C31.0094 16.3601 31.0095 16.3601 31.0096 16.3601ZM30.9735 16.2742H30.9187V16.0391H31.0178C31.0386 16.0391 31.0598 16.0391 31.0781 16.0509C31.0971 16.0637 31.1079 16.0864 31.1079 16.1098C31.1079 16.1362 31.0923 16.1608 31.0671 16.1704L31.1104 16.2742H31.0497L31.0137 16.1812H30.9735V16.2742H30.9735ZM30.9735 16.1409H31.0039C31.0152 16.1409 31.0271 16.1418 31.0373 16.1362C31.0464 16.1305 31.051 16.1197 31.051 16.1093C31.051 16.1003 31.0454 16.0899 31.0377 16.0855C31.0281 16.0794 31.013 16.0808 31.0027 16.0808H30.9735V16.1409ZM10.5043 12.4456C10.4099 12.4347 10.3683 12.4318 10.3035 12.4318C9.79372 12.4318 9.53563 12.6066 9.53563 12.9518C9.53563 13.1646 9.66163 13.3001 9.85811 13.3001C10.2245 13.3001 10.4885 12.9512 10.5043 12.4456ZM11.1583 13.9685H10.4131L10.4302 13.6143C10.2029 13.8943 9.89965 14.0273 9.48754 14.0273C9.00006 14.0273 8.66582 13.6466 8.66582 13.0937C8.66582 12.2618 9.24717 11.7765 10.2451 11.7765C10.347 11.7765 10.4777 11.7857 10.6116 11.8027C10.6395 11.6901 10.6468 11.6418 10.6468 11.5812C10.6468 11.3547 10.49 11.2702 10.0699 11.2702C9.62988 11.2652 9.26697 11.375 9.11794 11.4241C9.12735 11.3673 9.24255 10.6552 9.24255 10.6552C9.6908 10.5239 9.98642 10.4745 10.3191 10.4745C11.0914 10.4745 11.5004 10.8212 11.4997 11.4766C11.5012 11.6522 11.4722 11.8689 11.4268 12.1537C11.3487 12.649 11.1812 13.7099 11.1583 13.9685ZM8.28948 13.9685H7.39003L7.90525 10.7379L6.75486 13.9685H6.14194L6.06625 10.7564L5.52468 13.9685H4.68274L5.38603 9.76605H6.67926L6.75772 12.1183L7.54659 9.76605H8.98506L8.28948 13.9685ZM24.6732 12.4456C24.5792 12.4347 24.5374 12.4318 24.4728 12.4318C23.9632 12.4318 23.705 12.6066 23.705 12.9518C23.705 13.1646 23.8309 13.3001 24.0273 13.3001C24.3938 13.3001 24.658 12.9512 24.6732 12.4456ZM25.3278 13.9685H24.5826L24.5995 13.6143C24.3722 13.8943 24.0687 14.0273 23.657 14.0273C23.1693 14.0273 22.8355 13.6466 22.8355 13.0937C22.8355 12.2618 23.4164 11.7765 24.4145 11.7765C24.5164 11.7765 24.647 11.7857 24.7807 11.8027C24.8085 11.6901 24.8159 11.6418 24.8159 11.5812C24.8159 11.3547 24.6593 11.2702 24.2391 11.2702C23.7992 11.2652 23.4366 11.375 23.287 11.4241C23.2964 11.3673 23.412 10.6552 23.412 10.6552C23.8603 10.5239 24.1557 10.4745 24.488 10.4745C25.2606 10.4745 25.6697 10.8212 25.6689 11.4766C25.6704 11.6522 25.6414 11.8689 25.596 12.1537C25.5184 12.649 25.3505 13.7099 25.3278 13.9685ZM15.1559 13.9166C14.9097 13.9942 14.7178 14.0273 14.5098 14.0273C14.0499 14.0273 13.799 13.7631 13.799 13.2766C13.7924 13.1256 13.8651 12.7283 13.9222 12.3656C13.9742 12.0464 14.3122 10.0335 14.3122 10.0335H15.2063L15.1019 10.5508H15.6419L15.5199 11.3722H14.978C14.8741 12.0221 14.7262 12.8318 14.7245 12.9391C14.7245 13.1152 14.8185 13.1921 15.0324 13.1921C15.1349 13.1921 15.2143 13.1817 15.2749 13.1598L15.1559 13.9166ZM17.897 13.8889C17.5899 13.9828 17.2936 14.0282 16.9796 14.0274C15.9788 14.0264 15.4571 13.5037 15.4571 12.5028C15.4571 11.3345 16.1208 10.4745 17.0217 10.4745C17.7588 10.4745 18.2295 10.956 18.2295 11.7112C18.2295 11.9618 18.1972 12.2064 18.1194 12.5518H16.339C16.2788 13.0476 16.5961 13.2541 17.1161 13.2541C17.4362 13.2541 17.7248 13.1881 18.0457 13.0389L17.897 13.8889ZM17.3946 11.8628C17.3995 11.7916 17.4894 11.2528 16.9786 11.2528C16.6938 11.2528 16.4901 11.4699 16.4072 11.8628H17.3946ZM11.6983 11.6312C11.6983 12.0635 11.9078 12.3616 12.3832 12.5855C12.7475 12.7567 12.8038 12.8074 12.8038 12.9626C12.8038 13.1757 12.6432 13.2718 12.2873 13.2718C12.019 13.2718 11.7694 13.2299 11.4815 13.137C11.4815 13.137 11.3632 13.8903 11.3578 13.9263C11.5623 13.9709 11.7446 14.0122 12.2938 14.0274C13.2428 14.0274 13.6811 13.666 13.6811 12.8851C13.6811 12.4155 13.4977 12.1399 13.0471 11.9328C12.67 11.7597 12.6267 11.721 12.6267 11.5614C12.6267 11.3766 12.7761 11.2824 13.0669 11.2824C13.2434 11.2824 13.4846 11.3012 13.7131 11.3338L13.8411 10.5411C13.6082 10.5041 13.2552 10.4745 13.0496 10.4745C12.0434 10.4745 11.6952 11.0001 11.6983 11.6312ZM22.2716 10.5643C22.5215 10.5643 22.7544 10.6299 23.0753 10.7914L23.2224 9.87931C23.0907 9.82762 22.6268 9.52393 22.234 9.52393C21.632 9.52393 21.1232 9.82254 20.7654 10.3155C20.2434 10.1426 20.0288 10.492 19.7657 10.8401L19.5321 10.8945C19.5498 10.7799 19.5658 10.666 19.5604 10.5508H18.7344C18.6216 11.6086 18.4215 12.6799 18.265 13.7389L18.2242 13.9686H19.124C19.2742 12.9928 19.3565 12.3679 19.4065 11.9451L19.7454 11.7566C19.796 11.5683 19.9544 11.5047 20.2723 11.5124C20.2295 11.7435 20.2082 11.9781 20.2084 12.2132C20.2084 13.3312 20.8117 14.0274 21.78 14.0274C22.0294 14.0274 22.2434 13.9945 22.5748 13.9048L22.7331 12.9466C22.435 13.0934 22.1903 13.1624 21.9688 13.1624C21.446 13.1624 21.1296 12.7765 21.1296 12.1385C21.1295 11.2132 21.6001 10.5643 22.2716 10.5643Z" fill="black"/>
<path d="M8.54815 13.7188H7.64856L8.1641 10.4886L7.01371 13.7188H6.4007L6.32491 10.507L5.78339 13.7188H4.94141L5.6447 9.51685H6.93793L6.9743 12.1182L7.84679 9.51685H9.24373L8.54815 13.7188Z" fill="white"/>
<path d="M29.8856 9.76611L29.6862 10.9803C29.4402 10.6567 29.176 10.4225 28.8272 10.4225C28.3733 10.4225 27.9603 10.7665 27.6899 11.2729C27.3134 11.1948 26.9239 11.0623 26.9239 11.0623L26.9237 11.0653C26.9541 10.7823 26.9662 10.6096 26.9635 10.5509H26.1373C26.0248 11.6086 25.8249 12.68 25.6685 13.739L25.6273 13.9687H26.527C26.6485 13.1796 26.7416 12.5244 26.81 12.0048C27.1174 11.7271 27.2712 11.4847 27.5818 11.5009C27.4443 11.8335 27.3637 12.2165 27.3637 12.6094C27.3637 13.4638 27.796 14.0275 28.4499 14.0275C28.7794 14.0275 29.0323 13.9138 29.2791 13.6504L29.237 13.9681H30.0877L30.7727 9.76611H29.8856ZM28.7608 13.1788C28.4546 13.1788 28.3 12.9523 28.3 12.5051C28.3 11.8334 28.5895 11.357 28.9975 11.357C29.3065 11.357 29.4738 11.5926 29.4738 12.0266C29.4739 12.7042 29.1799 13.1788 28.7608 13.1788Z" fill="black"/>
<path d="M10.7626 12.1967C10.6684 12.1858 10.6267 12.1828 10.5621 12.1828C10.0522 12.1828 9.79433 12.3577 9.79433 12.7029C9.79433 12.9154 9.92033 13.0512 10.1165 13.0512C10.4832 13.0511 10.7472 12.7023 10.7626 12.1967ZM11.4171 13.719H10.6719L10.6888 13.3654C10.4617 13.6448 10.158 13.7784 9.74628 13.7784C9.25858 13.7784 8.92456 13.3977 8.92456 12.8448C8.92456 12.0125 9.50568 11.5275 10.5038 11.5275C10.6057 11.5275 10.7365 11.5367 10.8701 11.5538C10.898 11.4411 10.9053 11.3929 10.9053 11.3319C10.9053 11.1054 10.7488 11.0213 10.3286 11.0213C9.88839 11.0163 9.52571 11.1262 9.37645 11.1746C9.38587 11.118 9.50107 10.4067 9.50107 10.4067C9.94918 10.2748 10.2451 10.2253 10.5774 10.2253C11.3499 10.2253 11.7591 10.5723 11.7584 11.2271C11.7597 11.4034 11.7305 11.62 11.6853 11.9044C11.6074 12.3994 11.4398 13.4609 11.4171 13.719ZM23.4807 9.63017L23.3334 10.5425C23.0127 10.3811 22.7796 10.3154 22.53 10.3154C21.8584 10.3154 21.3877 10.9642 21.3877 11.8895C21.3877 12.5274 21.7042 12.9133 22.2269 12.9133C22.4485 12.9133 22.6929 12.8444 22.991 12.6974L22.8331 13.6551C22.5015 13.7455 22.2878 13.7784 22.0381 13.7784C21.0699 13.7784 20.4665 13.0822 20.4665 11.9642C20.4665 10.4619 21.3 9.41187 22.4921 9.41187C22.8848 9.41191 23.3488 9.57843 23.4807 9.63017ZM24.9319 12.1967C24.8377 12.1858 24.7962 12.1828 24.7313 12.1828C24.2217 12.1828 23.9636 12.3577 23.9636 12.7029C23.9636 12.9154 24.0896 13.0512 24.2859 13.0512C24.6523 13.0511 24.9165 12.7023 24.9319 12.1967ZM25.5863 13.719H24.8409L24.858 13.3654C24.6308 13.6448 24.3273 13.7784 23.9156 13.7784C23.428 13.7784 23.0938 13.3977 23.0938 12.8448C23.0938 12.0125 23.6751 11.5275 24.6729 11.5275C24.775 11.5275 24.9056 11.5367 25.0394 11.5538C25.0671 11.4411 25.0746 11.3929 25.0746 11.3319C25.0746 11.1054 24.918 11.0213 24.4978 11.0213C24.0579 11.0163 23.6949 11.1262 23.5457 11.1746C23.5551 11.118 23.6705 10.4067 23.6705 10.4067C24.1186 10.2748 24.4143 10.2253 24.7467 10.2253C25.5194 10.2253 25.9284 10.5723 25.9274 11.2271C25.929 11.4034 25.8999 11.62 25.8545 11.9044C25.7769 12.3994 25.6088 13.4609 25.5863 13.719ZM15.4145 13.6673C15.1681 13.7448 14.9762 13.7784 14.7683 13.7784C14.3085 13.7784 14.0576 13.5142 14.0576 13.0277C14.0512 12.8763 14.1239 12.4793 14.181 12.1167C14.2327 11.7971 14.5708 9.78442 14.5708 9.78442H15.4647L15.3604 10.3019H15.8193L15.6972 11.1229H15.2368C15.1329 11.7732 14.9847 12.5822 14.9831 12.6898C14.9831 12.8665 15.0774 12.9428 15.291 12.9428C15.3935 12.9428 15.4728 12.9328 15.5335 12.9109L15.4145 13.6673ZM18.1557 13.64C17.8487 13.7338 17.552 13.779 17.2381 13.7784C16.2373 13.7775 15.7156 13.2548 15.7156 12.2538C15.7156 11.0852 16.3793 10.2254 17.2803 10.2254C18.0173 10.2254 18.4881 10.7067 18.4881 11.4623C18.4881 11.7131 18.4558 11.9577 18.3782 12.3029H16.5978C16.5375 12.7986 16.8548 13.0054 17.3749 13.0054C17.6947 13.0054 17.9835 12.9392 18.3043 12.7895L18.1557 13.64ZM17.6529 11.6133C17.6583 11.5423 17.748 11.0032 17.237 11.0032C16.9524 11.0032 16.7487 11.221 16.6658 11.6133H17.6529ZM11.9566 11.3823C11.9566 11.8145 12.1663 12.1123 12.6417 12.3365C13.0059 12.5077 13.0622 12.5586 13.0622 12.7136C13.0622 12.9267 12.9015 13.0229 12.5459 13.0229C12.2774 13.0229 12.0278 12.9809 11.7397 12.8881C11.7397 12.8881 11.6218 13.6413 11.6165 13.6773C11.8205 13.7219 12.003 13.7627 12.5522 13.7784C13.5015 13.7784 13.9395 13.4171 13.9395 12.6363C13.9395 12.1665 13.7563 11.8909 13.3055 11.6838C12.9285 11.5104 12.8849 11.4723 12.8849 11.3125C12.8849 11.1279 13.0347 11.0329 13.3253 11.0329C13.5016 11.0329 13.7428 11.0523 13.9716 11.0848L14.0995 10.2919C13.8669 10.255 13.5138 10.2254 13.3082 10.2254C12.3018 10.2254 11.9538 10.7506 11.9566 11.3823ZM30.3466 13.719H29.4957L29.538 13.4009C29.2912 13.6648 29.0384 13.7784 28.7088 13.7784C28.0549 13.7784 27.6228 13.2148 27.6228 12.3604C27.6228 11.2236 28.293 10.2653 29.0863 10.2653C29.4351 10.2653 29.6992 10.4078 29.9449 10.7313L30.1445 9.51705H31.0317L30.3466 13.719ZM29.0199 12.9294C29.4388 12.9294 29.733 12.4548 29.733 11.7777C29.733 11.3436 29.5655 11.1081 29.2565 11.1081C28.8486 11.1081 28.5588 11.5842 28.5588 12.2561C28.5588 12.7032 28.7138 12.9294 29.0199 12.9294ZM26.3964 10.3019C26.2839 11.3596 26.0838 12.431 25.9274 13.4894L25.8863 13.719H26.7859C27.1076 11.6294 27.1855 11.2213 27.6899 11.2725C27.7703 10.8448 27.9199 10.4702 28.0314 10.2811C27.6547 10.2027 27.4443 10.4156 27.1689 10.82C27.1906 10.6452 27.2305 10.4754 27.2226 10.3019H26.3964ZM18.9924 10.3019C18.8795 11.3596 18.6795 12.431 18.5232 13.4894L18.4822 13.719H19.3822C19.7036 11.6294 19.7813 11.2213 20.2854 11.2725C20.3662 10.8448 20.5158 10.4702 20.627 10.2811C20.2506 10.2027 20.0401 10.4156 19.7649 10.82C19.7866 10.6452 19.8261 10.4754 19.8185 10.3019H18.9924ZM30.7418 13.4515C30.7418 13.3032 30.8616 13.1838 31.0093 13.1838C31.1569 13.1837 31.2766 13.3032 31.2768 13.4508V13.4515C31.2767 13.5992 31.157 13.7189 31.0093 13.719C30.8616 13.7189 30.7419 13.5992 30.7418 13.4515ZM31.0093 13.6548C31.1216 13.6548 31.2125 13.5639 31.2125 13.4517V13.4516C31.2127 13.3393 31.1217 13.2482 31.0095 13.2481H31.0093C30.8969 13.2482 30.8059 13.3392 30.8058 13.4516C30.806 13.5638 30.897 13.6548 31.0093 13.6548ZM30.9731 13.5685H30.9183V13.3338H31.0177C31.0383 13.3338 31.0596 13.3342 31.0775 13.3456C31.0967 13.3586 31.1077 13.381 31.1077 13.4044C31.1077 13.4309 31.0921 13.4557 31.0667 13.4651L31.1102 13.5683H31.0493L31.0133 13.4757H30.9731V13.5683V13.5685ZM30.9731 13.4356H31.0033C31.0146 13.4356 31.027 13.4364 31.037 13.4309C31.046 13.4252 31.0506 13.4143 31.0506 13.4039C31.0502 13.3942 31.0453 13.3852 31.0373 13.3797C31.0279 13.3743 31.0123 13.3757 31.0021 13.3757H30.9731V13.4356H30.9731Z" fill="white"/>
</g>
<defs>
<clipPath id="clip0_2137_1173">
<rect width="36" height="23.0769" fill="white"/>
</clipPath>
</defs>
</svg>
