<svg width="36" height="24" viewBox="0 0 36 24" fill="none" xmlns="http://www.w3.org/2000/svg">
<g clip-path="url(#clip0_2137_1188)">
<path d="M33.4615 0H2.53846C1.13875 0 0 1.13875 0 2.53846V20.5846C0 21.9843 1.13875 23.1231 2.53846 23.1231H33.4615C34.8612 23.1231 36 21.9843 36 20.5846V2.53846C36 1.13875 34.8612 0 33.4615 0Z" fill="white"/>
<path d="M7.77138 7.83927C7.38374 7.57278 6.87789 7.43921 6.25384 7.43921H3.83787C3.64657 7.43921 3.54087 7.53489 3.5208 7.72601L2.53934 13.8866C2.52914 13.9471 2.54427 14.0025 2.58461 14.0528C2.62472 14.1032 2.67517 14.1283 2.73558 14.1283H3.88315C4.08443 14.1283 4.19506 14.0328 4.21537 13.8414L4.48712 12.1805C4.49704 12.1001 4.53244 12.0346 4.59286 11.9842C4.65323 11.9339 4.72874 11.9009 4.81934 11.8859C4.90994 11.8709 4.99537 11.8634 5.07604 11.8634C5.15649 11.8634 5.25207 11.8685 5.36298 11.8785C5.47361 11.8886 5.54414 11.8935 5.57437 11.8935C6.44003 11.8935 7.1195 11.6495 7.61284 11.1612C8.10595 10.673 8.35278 9.99609 8.35278 9.13024C8.35278 8.53633 8.15884 8.10599 7.77138 7.83909V7.83927ZM6.52569 9.68912C6.4752 10.0415 6.34449 10.2729 6.1331 10.3837C5.92167 10.4946 5.61969 10.5497 5.22715 10.5497L4.72883 10.5648L4.98558 8.94913C5.00561 8.8385 5.07101 8.78312 5.18183 8.78312H5.46881C5.87127 8.78312 6.16338 8.84113 6.34458 8.9567C6.52569 9.07255 6.5861 9.31679 6.52569 9.68912Z" fill="#003087"/>
<path d="M33.2672 7.43896H32.1499C32.0389 7.43896 31.9735 7.49435 31.9536 7.60507L30.972 13.8866L30.9569 13.9168C30.9569 13.9674 30.9771 14.015 31.0174 14.0603C31.0575 14.1055 31.108 14.1282 31.1684 14.1282H32.1651C32.3561 14.1282 32.4618 14.0327 32.4822 13.8413L33.4637 7.66549V7.65049C33.4636 7.50958 33.3979 7.4391 33.2672 7.4391V7.43896Z" fill="#009CDE"/>
<path d="M19.7682 9.87056C19.7682 9.82035 19.748 9.77244 19.7079 9.72721C19.6675 9.68193 19.6222 9.65918 19.572 9.65918H18.4093C18.2984 9.65918 18.2078 9.70976 18.1375 9.81015L16.5369 12.1658L15.8726 9.90084C15.822 9.73986 15.7114 9.65918 15.5404 9.65918H14.4077C14.3573 9.65918 14.312 9.68189 14.272 9.72721C14.2316 9.77244 14.2115 9.8204 14.2115 9.87056C14.2115 9.89087 14.3097 10.1877 14.506 10.7615C14.7022 11.3353 14.9136 11.9545 15.1402 12.6189C15.3667 13.2832 15.4848 13.6357 15.495 13.6757C14.6695 14.8033 14.2569 15.4073 14.2569 15.4877C14.2569 15.6187 14.3223 15.6841 14.4532 15.6841H15.6158C15.7265 15.6841 15.8171 15.6338 15.8877 15.5331L19.7381 9.97616C19.7581 9.95618 19.7682 9.9211 19.7682 9.87052V9.87056Z" fill="#003087"/>
<path d="M30.5949 9.65896H29.4473C29.3063 9.65896 29.221 9.82507 29.1907 10.1573C28.9287 9.75482 28.4508 9.55322 27.7561 9.55322C27.0313 9.55322 26.4147 9.82507 25.9064 10.3687C25.398 10.9123 25.1439 11.5516 25.1439 12.2864C25.1439 12.8805 25.3175 13.3535 25.6648 13.7057C26.012 14.0583 26.4776 14.2342 27.0617 14.2342C27.3535 14.2342 27.6504 14.1737 27.9524 14.053C28.2545 13.9323 28.4908 13.7713 28.6622 13.5699C28.6622 13.58 28.652 13.6251 28.632 13.7056C28.6117 13.7863 28.6018 13.8469 28.6018 13.8868C28.6018 14.0481 28.6671 14.1284 28.7982 14.1284H29.8401C30.0311 14.1284 30.142 14.033 30.1721 13.8415L30.7913 9.90048C30.8012 9.84007 30.7861 9.78478 30.746 9.73438C30.7056 9.68421 30.6553 9.65896 30.5949 9.65896ZM28.6244 12.6337C28.3677 12.8853 28.0582 13.0112 27.6958 13.0112C27.4038 13.0112 27.1674 12.9308 26.9861 12.7696C26.8048 12.6088 26.7142 12.3873 26.7142 12.1052C26.7142 11.733 26.8401 11.4182 27.0918 11.1615C27.3432 10.9048 27.6555 10.7764 28.028 10.7764C28.3096 10.7764 28.5437 10.8595 28.7301 11.0255C28.9162 11.1916 29.0095 11.4207 29.0095 11.7127C29.0095 12.075 28.8811 12.3821 28.6244 12.6337Z" fill="#009CDE"/>
<path d="M13.4413 9.65896H12.2938C12.1526 9.65896 12.0672 9.82507 12.037 10.1573C11.7652 9.75482 11.287 9.55322 10.6025 9.55322C9.8777 9.55322 9.26103 9.82507 8.75274 10.3687C8.24431 10.9123 7.99023 11.5516 7.99023 12.2864C7.99023 12.8805 8.16391 13.3535 8.51122 13.7057C8.85853 14.0583 9.32399 14.2342 9.90793 14.2342C10.1896 14.2342 10.4818 14.1737 10.7837 14.053C11.0857 13.9323 11.3273 13.7713 11.5085 13.5699C11.4681 13.6906 11.4481 13.7963 11.4481 13.8868C11.4481 14.0481 11.5135 14.1284 11.6444 14.1284H12.6862C12.8774 14.1284 12.9882 14.033 13.0185 13.8415L13.6375 9.90048C13.6474 9.84007 13.6324 9.78478 13.5922 9.73438C13.552 9.68421 13.5017 9.65896 13.4413 9.65896ZM11.4708 12.6411C11.214 12.8881 10.8993 13.0112 10.5271 13.0112C10.235 13.0112 10.0009 12.9308 9.8249 12.7696C9.64863 12.6088 9.56062 12.3873 9.56062 12.1052C9.56062 11.733 9.68639 11.4182 9.93816 11.1615C10.1896 10.9048 10.5017 10.7764 10.8743 10.7764C11.1561 10.7764 11.3901 10.8595 11.5765 11.0256C11.7626 11.1917 11.8558 11.4208 11.8558 11.7127C11.8558 12.0851 11.7275 12.3948 11.4708 12.6411Z" fill="#003087"/>
<path d="M24.9249 7.83927C24.5373 7.57278 24.0315 7.43921 23.4074 7.43921H21.0065C20.805 7.43921 20.6942 7.53489 20.6743 7.72601L19.6928 13.8866C19.6826 13.9472 19.6977 14.0025 19.7381 14.0528C19.778 14.1032 19.8286 14.1283 19.889 14.1283H21.1272C21.2479 14.1283 21.3284 14.0629 21.3688 13.932L21.6406 12.1805C21.6506 12.1001 21.6858 12.0346 21.7463 11.9842C21.8067 11.9339 21.8821 11.901 21.9728 11.8859C22.0634 11.8709 22.1488 11.8634 22.2295 11.8634C22.31 11.8634 22.4056 11.8685 22.5163 11.8785C22.6271 11.8886 22.6978 11.8935 22.7277 11.8935C23.5936 11.8935 24.2729 11.6495 24.7662 11.1612C25.2595 10.673 25.5061 9.99609 25.5061 9.13024C25.5062 8.53638 25.3123 8.10604 24.9249 7.83913V7.83927ZM23.3772 10.3233C23.1557 10.4742 22.8234 10.5497 22.3806 10.5497L21.8974 10.5648L22.1541 8.94913C22.174 8.8385 22.2394 8.78312 22.3503 8.78312H22.622C22.8435 8.78312 23.0196 8.79318 23.1507 8.81325C23.2813 8.83356 23.4074 8.89629 23.5282 9.00198C23.649 9.10772 23.7094 9.26127 23.7094 9.46259C23.7094 9.88536 23.5985 10.1722 23.3772 10.3233Z" fill="#009CDE"/>
</g>
<defs>
<clipPath id="clip0_2137_1188">
<rect width="36" height="23.0769" fill="white"/>
</clipPath>
</defs>
</svg>
