<svg width="36" height="24" viewBox="0 0 36 24" fill="none" xmlns="http://www.w3.org/2000/svg">
<g clip-path="url(#clip0_2137_1157)">
<path d="M1.84615 0H34.1538C35.1735 0 36 0.826569 36 1.84615V21.2308C36 22.2504 35.1735 23.0769 34.1538 23.0769H1.84615C0.826569 23.0769 0 22.2504 0 21.2308V1.84615C0 0.826569 0.826569 0 1.84615 0Z" fill="#0E4595"/>
<path d="M13.5323 16.0953L15.072 7.0602H17.5348L15.9939 16.0953H13.5323ZM24.8912 7.25497C24.4034 7.07192 23.6387 6.87549 22.684 6.87549C20.2506 6.87549 18.5364 8.10087 18.5219 9.85717C18.5081 11.1555 19.7456 11.8797 20.6797 12.3119C21.6383 12.7547 21.9605 13.0372 21.956 13.4327C21.95 14.0382 21.1905 14.3149 20.4827 14.3149C19.497 14.3149 18.9733 14.178 18.1645 13.8407L17.8472 13.6971L17.5015 15.7197C18.0767 15.9719 19.1404 16.1904 20.2448 16.2017C22.8336 16.2017 24.514 14.9903 24.5332 13.1148C24.5424 12.087 23.8863 11.3049 22.4655 10.66C21.6047 10.2421 21.0776 9.96313 21.0831 9.53995C21.0831 9.1644 21.5294 8.76276 22.4935 8.76276C23.2988 8.7503 23.8822 8.92592 24.3368 9.10892L24.5574 9.21323L24.8912 7.25497ZM31.2286 7.06006H29.3256C28.7361 7.06006 28.2949 7.221 28.036 7.80932L24.3786 16.0893H26.9646C26.9646 16.0893 27.3874 14.976 27.483 14.7316C27.7657 14.7316 30.2779 14.7354 30.6371 14.7354C30.7107 15.0517 30.9366 16.0893 30.9366 16.0893H33.2219L31.2286 7.05978V7.06006ZM28.2093 12.8944C28.4129 12.3738 29.1905 10.3687 29.1905 10.3687C29.1759 10.3928 29.3926 9.84558 29.517 9.50635L29.6834 10.2854C29.6834 10.2854 30.1551 12.4421 30.2536 12.8944H28.2093ZM11.4416 7.06006L9.03053 13.2216L8.77359 11.9694C8.32475 10.5261 6.92628 8.96229 5.36292 8.17938L7.5675 16.0809L10.1732 16.078L14.0503 7.05996H11.4416" fill="white"/>
<path d="M6.78094 7.05976H2.80981L2.77838 7.24774C5.86783 7.99562 7.91207 9.80295 8.76084 11.9744L7.8973 7.82236C7.74823 7.25028 7.3159 7.07955 6.78103 7.05957" fill="#F2AE14"/>
</g>
<defs>
<clipPath id="clip0_2137_1157">
<rect width="36" height="23.0769" fill="white"/>
</clipPath>
</defs>
</svg>
